# xmcd CD database file
#
# Track frame offsets:
#	150
#	38697
#	57954
#	85182
#	111006
#	123531
#	148627
#	181719
#	193440
#	226073
#	243560
#
# Disc length: 3618 seconds
#
# Revision: 0
# Processed by: cddbd v1.5.2PL0 Copyright (c) Steve Scherf et al.
# Submitted via: CDex 1.51
#
DISCID=920e200b
DTITLE=Oscar Klein and Lino Patruno - Live At The San Marion Jazz Festival
DYEAR=1900
DGENRE=Jazz
TTITLE0=All Of Me
TTITLE1=Lazy River
TTITLE2=Indiana
TTITLE3=Stealin' Apples
TTITLE4=The World Is Waiting For The Sun Rise
TTITLE5=When You're Smiling
TTITLE6=Mood Indigo
TTITLE7=Come On
TTITLE8=St. Louis Blues
TTITLE9=Organ Grinder Blues
TTITLE10=Royal Garden Blues
EXTD=
EXTT0=
EXTT1=
EXTT2=
EXTT3=
EXTT4=
EXTT5=
EXTT6=
EXTT7=
EXTT8=
EXTT9=
EXTT10=
PLAYORDER=
